<svg width="23" height="22" viewBox="0 0 23 22" fill="none" xmlns="http://www.w3.org/2000/svg">
<path fill-rule="evenodd" clip-rule="evenodd" d="M7.40543 0.066C8.57843 0.012 8.95243 0 11.9404 0C14.9284 0 15.3024 0.013 16.4744 0.066C17.6464 0.119 18.4464 0.306 19.1464 0.577C19.8794 0.854 20.5444 1.287 21.0944 1.847C21.6544 2.396 22.0864 3.06 22.3624 3.794C22.6344 4.494 22.8204 5.294 22.8744 6.464C22.9284 7.639 22.9404 8.013 22.9404 11C22.9404 13.988 22.9274 14.362 22.8744 15.535C22.8214 16.705 22.6344 17.505 22.3624 18.205C22.0864 18.9391 21.6537 19.6042 21.0944 20.154C20.5444 20.714 19.8794 21.146 19.1464 21.422C18.4464 21.694 17.6464 21.88 16.4764 21.934C15.3024 21.988 14.9284 22 11.9404 22C8.95243 22 8.57843 21.987 7.40543 21.934C6.23543 21.881 5.43543 21.694 4.73543 21.422C4.00135 21.146 3.33625 20.7133 2.78643 20.154C2.22681 19.6047 1.79374 18.9399 1.51743 18.206C1.24643 17.506 1.06043 16.706 1.00643 15.536C0.95243 14.361 0.94043 13.987 0.94043 11C0.94043 8.012 0.95343 7.638 1.00643 6.466C1.05943 5.294 1.24643 4.494 1.51743 3.794C1.79415 3.06008 2.22755 2.39531 2.78743 1.846C3.33647 1.2865 4.0009 0.853443 4.73443 0.577C5.43443 0.306 6.23443 0.12 7.40443 0.066H7.40543ZM16.3854 2.046C15.2254 1.993 14.8774 1.982 11.9404 1.982C9.00343 1.982 8.65543 1.993 7.49543 2.046C6.42243 2.095 5.84043 2.274 5.45243 2.425C4.93943 2.625 4.57243 2.862 4.18743 3.247C3.82247 3.60205 3.54161 4.03428 3.36543 4.512C3.21443 4.9 3.03543 5.482 2.98643 6.555C2.93343 7.715 2.92243 8.063 2.92243 11C2.92243 13.937 2.93343 14.285 2.98643 15.445C3.03543 16.518 3.21443 17.1 3.36543 17.488C3.54143 17.965 3.82243 18.398 4.18743 18.753C4.54243 19.118 4.97543 19.399 5.45243 19.575C5.84043 19.726 6.42243 19.905 7.49543 19.954C8.65543 20.007 9.00243 20.018 11.9404 20.018C14.8784 20.018 15.2254 20.007 16.3854 19.954C17.4584 19.905 18.0404 19.726 18.4284 19.575C18.9414 19.375 19.3084 19.138 19.6934 18.753C20.0584 18.398 20.3394 17.965 20.5154 17.488C20.6664 17.1 20.8454 16.518 20.8944 15.445C20.9474 14.285 20.9584 13.937 20.9584 11C20.9584 8.063 20.9474 7.715 20.8944 6.555C20.8454 5.482 20.6664 4.9 20.5154 4.512C20.3154 3.999 20.0784 3.632 19.6934 3.247C19.3384 2.88207 18.9061 2.60121 18.4284 2.425C18.0404 2.274 17.4584 2.095 16.3854 2.046ZM10.5354 14.391C11.3201 14.7176 12.1938 14.7617 13.0074 14.5157C13.8209 14.2697 14.5238 13.7489 14.996 13.0422C15.4683 12.3356 15.6805 11.4869 15.5965 10.6411C15.5125 9.79534 15.1374 9.00497 14.5354 8.405C14.1517 8.02148 13.6876 7.72781 13.1768 7.54515C12.6659 7.36248 12.1209 7.29536 11.5809 7.34862C11.041 7.40187 10.5196 7.57418 10.0542 7.85313C9.58888 8.13208 9.19117 8.51074 8.88973 8.96185C8.58829 9.41296 8.39062 9.92529 8.31095 10.462C8.23127 10.9986 8.27158 11.5463 8.42897 12.0655C8.58636 12.5847 8.85691 13.0626 9.22115 13.4647C9.58539 13.8668 10.0343 14.1832 10.5354 14.391ZM7.94243 7.002C8.46745 6.47697 9.09075 6.0605 9.77673 5.77636C10.4627 5.49222 11.1979 5.34597 11.9404 5.34597C12.6829 5.34597 13.4182 5.49222 14.1041 5.77636C14.7901 6.0605 15.4134 6.47697 15.9384 7.002C16.4635 7.52702 16.8799 8.15032 17.1641 8.8363C17.4482 9.52228 17.5945 10.2575 17.5945 11C17.5945 11.7425 17.4482 12.4777 17.1641 13.1637C16.8799 13.8497 16.4635 14.473 15.9384 14.998C14.8781 16.0583 13.44 16.654 11.9404 16.654C10.4409 16.654 9.00276 16.0583 7.94243 14.998C6.88209 13.9377 6.2864 12.4995 6.2864 11C6.2864 9.50046 6.88209 8.06234 7.94243 7.002ZM18.8484 6.188C18.9785 6.06527 19.0827 5.91768 19.1547 5.75397C19.2268 5.59027 19.2652 5.41377 19.2678 5.23493C19.2705 5.05609 19.2372 4.87855 19.1699 4.71281C19.1027 4.54707 19.0029 4.39651 18.8764 4.27004C18.7499 4.14357 18.5994 4.04376 18.4336 3.97652C18.2679 3.90928 18.0903 3.87598 17.9115 3.87858C17.7327 3.88119 17.5562 3.91965 17.3925 3.9917C17.2287 4.06374 17.0812 4.1679 16.9584 4.298C16.7197 4.55103 16.5891 4.88712 16.5941 5.23493C16.5992 5.58274 16.7396 5.91488 16.9856 6.16084C17.2316 6.40681 17.5637 6.54723 17.9115 6.5523C18.2593 6.55737 18.5954 6.42669 18.8484 6.188Z" fill="#1D1D1D"/>
</svg>
